<svg width="183" height="40" viewBox="0 0 183 40" fill="none" xmlns="http://www.w3.org/2000/svg">
<path d="M125.146 24.1848H67.3262C67.0962 24.1848 66.9062 23.9948 66.9062 23.7648C66.9062 23.5348 67.0962 23.3448 67.3262 23.3448H125.146C125.376 23.3448 125.566 23.5348 125.566 23.7648C125.566 23.9948 125.376 24.1848 125.146 24.1848Z" fill="#231F20"/>
<path d="M49.7165 15.4248C49.2865 15.4248 49.2365 15.6548 48.9265 17.1648L48.8865 17.3648C48.8065 17.4748 48.7165 17.5848 48.6365 17.6948C48.6165 17.5648 48.5765 17.3948 48.4965 17.0948C48.2665 16.3248 47.9365 15.9348 47.5165 15.9348C47.3065 15.9348 47.1065 16.0348 46.9065 16.2048C46.8365 16.2148 46.7765 16.2348 46.7365 16.2548C44.9465 17.2148 40.8465 19.0848 39.0365 19.2848C38.4965 19.3548 37.9965 19.2648 37.7665 19.0648C37.6865 18.9948 37.6365 18.9148 37.6365 18.8248C37.6365 18.6648 37.6765 18.0948 38.6365 17.3648C39.3865 16.8048 39.9465 16.7148 40.1965 16.8148C40.3265 16.8648 40.4665 16.8348 40.5565 16.7448C40.6765 16.6248 40.6965 16.4248 40.6265 16.2448C40.5265 16.0148 40.2965 15.8748 39.9965 15.8748C39.5065 15.8748 39.0265 16.0248 38.5265 16.3348C36.7565 17.2648 32.0065 19.4248 30.3565 19.4248C29.8465 19.4248 29.4565 19.1948 29.4565 18.8748C29.4565 18.5448 29.5465 18.2548 29.6165 18.0248C29.6665 17.8648 29.7065 17.7448 29.7065 17.6348C29.7065 17.3948 29.5065 17.2448 29.2865 17.2048C29.3165 17.1548 29.3365 17.0848 29.3365 17.0148C29.3365 16.6648 28.9365 16.0148 28.3665 16.0148C28.0465 16.0148 27.6565 16.0748 27.0865 16.4048C25.5965 16.4248 23.4265 16.6848 21.1665 17.1148C23.8165 10.7348 26.4765 4.21484 24.9865 1.62484C24.6165 0.97484 23.9965 0.58484 23.1465 0.46484C19.8265 0.0548399 14.2965 3.95484 11.2265 7.86484C7.6065 12.5648 7.1965 15.7048 7.2765 17.1548C7.3165 17.6548 7.4565 18.5948 7.9065 19.3248C8.0965 19.6648 8.3865 19.7048 8.5965 19.6048C8.8465 19.4748 9.0065 19.0848 8.7765 18.5948C8.6165 18.3448 8.4965 17.7748 8.4665 17.0348C8.4365 15.3748 9.4265 12.0948 12.3065 8.33484C14.7265 5.18484 20.4265 1.28484 22.9265 1.63484C23.2565 1.68484 23.5065 1.86484 23.6865 2.18484C24.3565 3.39484 24.2165 7.01484 19.8165 17.4248C19.3365 17.5248 18.7565 17.6548 18.2665 17.7848C12.7965 19.3048 7.9165 22.0448 4.1765 25.6948C0.616498 29.1548 -0.783502 32.9948 0.426498 35.9648C1.2165 37.9048 3.0265 39.1148 5.1465 39.1148C11.3265 39.1148 17.2065 26.9348 20.1665 19.6848L20.7565 18.2448C22.3465 17.9348 24.3565 17.6148 25.9065 17.3848C25.3265 17.9748 25.1865 18.4948 25.1865 18.8548C25.1865 19.1348 25.5365 19.4448 26.0065 19.4448C26.3465 19.4448 27.2565 19.0348 27.8965 18.6648C28.2765 18.4648 28.4965 18.3648 28.6165 18.3148C28.5965 18.4548 28.5765 18.6548 28.5765 18.9348C28.5765 19.6148 29.0465 20.4048 30.3765 20.4048C31.6065 20.4048 34.6465 19.1848 36.9265 18.0848C36.7565 18.4248 36.6865 18.7648 36.7265 19.0648C36.7765 19.3848 36.9265 19.6448 37.1865 19.8448C37.7465 20.2548 38.6365 20.2248 39.2865 20.1348C40.6665 19.9348 43.7665 18.7348 45.9265 17.6148C45.9065 17.6548 45.8865 17.6848 45.8665 17.7248C45.2165 18.8348 44.7765 19.9248 44.7065 20.6348C44.6365 21.2048 44.7865 21.5048 44.9165 21.6548C45.0265 21.7848 45.1765 21.8548 45.3365 21.8548C45.7265 21.8548 47.0565 20.8248 48.5465 19.2348C48.5465 19.2748 48.5265 19.3148 48.5165 19.3548C48.3865 19.9648 48.2265 20.6748 48.0365 21.5148C47.3065 24.6548 47.0565 25.8848 46.7665 27.9948C46.5065 29.9248 46.6765 30.4048 46.8465 30.6048C46.9365 30.7048 47.0465 30.7548 47.1765 30.7548C47.5365 30.7548 47.5465 30.4248 47.5665 29.9648C47.5765 29.6248 47.5965 29.1148 47.6965 28.3748C47.9465 26.4048 48.3765 24.6248 49.0265 21.9348C49.1765 21.3248 49.3165 20.7648 49.4365 20.2548C49.7665 18.9048 50.0265 17.8348 50.2565 17.0748L50.2765 17.0148C50.4465 16.4948 50.5065 16.3048 50.3165 15.9648C50.2065 15.7448 50.0565 15.4448 49.7465 15.4448L49.7165 15.4248ZM45.4965 20.8648C45.4965 20.8648 45.4965 20.7848 45.5065 20.7248C45.5565 20.2548 45.9265 19.3848 46.5365 18.3348C47.1065 17.3348 47.5465 16.9848 47.7065 16.9148C47.7465 16.9848 47.8065 17.1748 47.8465 17.2948C47.9465 17.5748 47.9365 17.8448 47.9365 17.9448V17.9848C47.9065 18.0648 47.8565 18.2248 47.9365 18.3648C47.9565 18.4048 47.9865 18.4348 48.0265 18.4548C47.7865 18.7448 47.5465 19.0148 47.3065 19.2548C46.1765 20.3848 45.6765 20.7548 45.4765 20.8748L45.4965 20.8648ZM19.2965 18.5448L19.0865 19.0648C13.4865 31.8848 8.8865 38.1148 5.0265 38.1148C3.7265 38.1148 2.5465 37.2048 1.9565 35.7448C1.0665 33.5448 1.3865 29.9548 4.9865 26.4548C9.6265 21.9348 14.3565 20.0448 18.7665 18.6848L19.2965 18.5448ZM26.1165 18.5148C26.2665 18.2548 26.6265 17.8048 27.1065 17.4948C27.3665 17.3148 27.5765 17.1948 27.7665 17.0948C27.7965 17.0948 27.8365 17.0948 27.8565 17.0848C27.9165 17.0848 28.0665 17.0348 28.1665 16.9148C28.2865 16.8748 28.3865 16.8448 28.4465 16.8448C28.4765 16.8448 28.5565 16.9648 28.5865 17.0148C28.6465 17.1048 28.7165 17.2148 28.8165 17.2848C28.5665 17.3748 28.2465 17.5248 27.8065 17.7448C27.6165 17.8348 27.4065 17.9348 27.1865 18.0448C26.8465 18.2148 26.3965 18.4348 26.1065 18.5148H26.1165Z" fill="#231F20"/>
<path d="M76.9665 14.8948C77.2065 14.8948 77.4765 14.6348 77.6065 14.4348C77.6865 14.3148 77.7065 14.1648 77.6665 14.0148C77.6265 13.8448 77.5165 13.6848 77.3965 13.6248C77.3365 13.5748 77.2465 13.5548 77.1665 13.5748C76.9565 13.6148 76.7365 13.8748 76.6665 13.9848C76.5265 14.2448 76.5665 14.7048 76.8265 14.8648C76.8665 14.8848 76.9165 14.8948 76.9665 14.8948Z" fill="#231F20"/>
<path d="M99.2565 18.2248C98.6465 18.6848 97.9365 19.1648 97.1865 19.1648C97.0465 19.1648 96.7665 19.1448 96.5865 18.9548C97.2165 18.7148 98.2665 18.1848 98.6165 17.2748C98.7565 16.8848 98.7465 16.5448 98.5965 16.3048C98.4765 16.1048 98.2765 15.9848 98.0265 15.9448C97.7365 15.8848 97.3065 15.9748 96.8765 16.2348C96.8565 16.2348 96.8265 16.2448 96.8065 16.2548L91.8465 18.0448C90.8965 18.3948 90.0065 18.7248 89.6665 18.6548C89.6065 18.5848 89.5965 18.2648 89.6465 17.6948C89.6665 17.3848 89.5765 17.1148 89.3965 16.9248C89.2365 16.7548 89.0065 16.6648 88.7565 16.6648C88.3165 16.6648 87.7565 16.9348 87.0265 17.3148C86.8665 17.3948 86.6965 17.4848 86.5465 17.5648C86.4165 17.6348 86.2765 17.7048 86.1665 17.7648C86.2265 17.5148 86.3365 17.0848 86.4365 16.7048C86.7165 15.6148 86.8865 14.9448 86.8865 14.7548C86.8865 14.2748 86.5665 13.7848 85.8465 13.7848C85.5065 13.7848 85.1065 13.9848 84.6065 14.3048C82.4065 15.7048 80.1265 17.1548 77.7065 17.9048C76.9765 18.1348 76.6465 18.1748 76.5065 18.1748H76.4765C76.4765 18.1748 76.4765 18.1748 76.4765 18.1248C76.4965 17.8248 76.6365 17.3748 76.8565 16.8648C76.8965 16.7948 77.0065 16.5648 76.8965 16.3748C76.8465 16.2948 76.7565 16.2148 76.5265 16.2148H76.5165C75.9965 16.3048 75.8165 16.5748 75.6965 16.9548C75.5365 17.3748 75.4865 17.8548 75.4865 18.1648C75.4865 18.6548 75.8765 19.0348 76.4065 19.0348C76.7965 19.0348 77.2965 18.9248 77.9865 18.6948C80.7565 17.7348 82.7065 16.6148 85.1265 14.9848C85.4565 14.7748 85.6565 14.6648 85.6865 14.6648C85.6865 14.6648 85.6965 14.6648 85.7065 14.6648C85.6965 14.7648 85.6165 15.1848 85.5265 15.6948C85.2365 17.2648 85.1065 18.0348 85.1065 18.1548C85.1065 18.5248 85.6065 18.7448 85.8165 18.7448C85.9965 18.7448 86.4365 18.5548 87.6265 17.9848L87.9365 17.8348C88.2965 17.6348 88.5065 17.5848 88.5865 17.5848C88.5865 17.6348 88.6065 17.7448 88.5865 17.9748C88.5665 18.4648 88.5365 19.3748 89.3365 19.5248C90.0565 19.6748 91.0565 19.2948 92.2165 18.8648L92.7165 18.6848C93.2665 18.4748 93.8965 18.2348 94.5365 17.9948C94.9765 17.8348 95.4165 17.6648 95.8365 17.5048C95.8365 17.5248 95.8165 17.5448 95.8165 17.5548C95.5165 18.2248 95.5365 18.9148 95.8765 19.3948C96.1665 19.8048 96.6265 20.0248 97.2065 20.0248C97.2665 20.0248 97.3265 20.0248 97.3865 20.0248C97.9865 19.9948 99.0665 19.4848 99.7265 18.7748C100.027 18.4448 99.9165 18.2548 99.8465 18.1848C99.7465 18.0748 99.5365 18.0448 99.3165 18.2148L99.2565 18.2248ZM97.8565 16.7248C97.8565 16.7248 97.8865 16.8248 97.8465 16.9548C97.7065 17.3548 97.0965 17.8948 96.4865 18.2048C96.5165 18.1148 96.5465 18.0248 96.5965 17.9148C96.9865 16.9548 97.6465 16.7248 97.8265 16.7248C97.8365 16.7248 97.8465 16.7248 97.8565 16.7248Z" fill="#231F20"/>
<path d="M75.9565 6.04484C76.1265 5.71484 76.2665 5.44484 76.3165 5.25484C76.3865 5.03484 76.3865 4.54484 76.2065 4.30484C76.1365 4.20484 76.0265 4.14484 75.9165 4.14484C75.6065 4.14484 75.2365 4.40484 74.5565 6.69484C74.4665 6.74484 74.3865 6.82484 74.3365 6.94484C72.5865 11.3348 69.3165 19.5148 66.3165 19.8648C65.8565 19.8948 65.4765 19.7948 65.2365 19.5848C65.0565 19.4348 64.9465 19.2148 64.8965 18.9648C65.7465 18.6748 66.6265 18.2548 66.9965 17.4248C67.2065 17.0048 67.2365 16.5848 67.0865 16.2848C66.9765 16.0748 66.7965 15.9348 66.5665 15.8848C66.2865 15.8348 65.8965 15.9048 65.5065 16.1148C65.3865 16.1148 65.2865 16.1348 65.2165 16.1548C64.5065 16.5348 63.5465 17.1448 62.5365 17.7948C60.3165 19.2148 57.5465 20.9748 56.3265 20.9748C56.2465 20.9748 56.2165 20.9448 56.1965 20.9148C56.1465 20.8548 56.0565 20.6448 56.1965 20.0448C56.4165 19.2048 56.8465 18.1448 57.1465 17.5048L57.2565 17.2748C57.4765 16.8148 57.5765 16.6048 57.4765 16.4148C57.4265 16.3148 57.3465 16.2648 57.2765 16.2348L57.4365 15.9248L57.1865 16.2048C57.1865 16.2048 57.1865 16.2048 57.1765 16.2048C56.7765 16.1148 56.3465 16.5848 55.5765 17.4448C55.4165 17.6248 55.2465 17.8148 55.0565 18.0148C54.4465 18.6748 53.2465 19.6148 52.9065 19.7048C52.8965 19.6648 52.8865 19.5648 52.9065 19.3948C52.9465 19.2348 53.1165 18.6848 53.3965 18.1248C53.5765 17.7848 53.8165 17.4848 54.0165 17.2448C54.2465 16.9748 54.3765 16.8048 54.3765 16.6348C54.3765 16.5348 54.3365 16.3648 54.2165 16.2548C54.1465 16.1948 54.0265 16.1248 53.8265 16.1448C53.4165 16.2248 52.8965 17.1048 52.6465 17.6748C52.4065 18.1948 52.0965 18.9348 52.0465 19.5448C52.0165 19.9648 52.0765 20.2448 52.2465 20.4248C52.3665 20.5548 52.5465 20.6248 52.7665 20.6248C53.3365 20.6248 54.8665 19.3848 55.6665 18.5448C55.6965 18.5148 55.7165 18.4948 55.7365 18.4648C55.5565 18.9648 55.3965 19.4748 55.3065 19.8948C55.1265 20.6748 55.1665 21.2148 55.4265 21.5448C55.6065 21.7748 55.8965 21.8948 56.2665 21.8948C57.9865 21.8948 61.4865 19.5548 64.0865 17.8048C63.8065 18.6248 63.8865 19.3848 64.3365 19.9548C64.8165 20.5748 65.6965 20.9148 66.4765 20.7848C69.0565 20.3648 71.1365 16.9248 73.3765 11.3448C72.6965 14.3048 71.8965 18.2748 71.5865 22.9848C71.4665 24.5048 71.5865 25.5748 71.9265 25.9048C72.0265 26.0048 72.1365 26.0348 72.2165 26.0348C72.2265 26.0348 72.2365 26.0348 72.2465 26.0348C72.3365 26.0348 72.4065 25.9948 72.4565 25.9248C72.5365 25.8248 72.5265 25.7048 72.4965 25.5148C72.4565 25.2048 72.3665 24.5648 72.4865 23.2248C72.9065 18.6448 73.9965 13.5348 74.4165 11.6048V11.5348C74.9065 9.30484 75.5865 6.83484 75.6265 6.70484C75.7365 6.46484 75.8565 6.23484 75.9565 6.03484V6.04484ZM66.2365 17.0448C65.9665 17.5048 65.4765 17.9248 64.9365 18.1748C64.9665 18.0748 65.0065 17.9748 65.0465 17.8648C65.4265 16.9748 66.1065 16.6648 66.3465 16.6648C66.3465 16.7348 66.3465 16.8748 66.2365 17.0448Z" fill="#231F20"/>
<path d="M113.107 14.6048C109.957 11.8748 108.887 10.3648 108.887 8.61484C108.887 6.03484 111.837 4.13484 113.587 3.23484C116.417 1.78484 119.467 1.12484 121.097 1.12484C122.527 1.12484 123.447 1.46484 123.617 2.05484C123.787 2.61484 123.257 3.40484 122.297 4.03484C122.217 4.09484 122.007 4.25484 122.087 4.49484C122.147 4.76484 122.407 4.93484 122.737 4.87484C124.237 4.37484 125.087 3.33484 124.907 2.24484C124.747 1.24484 123.567 0.0848389 120.777 0.0848389C116.117 0.0848389 107.507 3.61484 107.507 8.65484C107.507 10.7848 109.067 12.5348 112.337 15.4348C116.517 19.1648 118.227 21.5748 118.227 23.7348C118.227 26.1348 116.117 27.6848 112.857 27.6848C108.787 27.6848 106.887 24.8748 106.887 22.9748C106.887 22.7348 106.957 22.5148 107.017 22.3148C107.067 22.1448 107.107 22.0048 107.107 21.8648C107.107 21.5948 106.927 21.4048 106.677 21.4048C106.297 21.4048 105.707 22.1048 105.707 23.1648C105.707 24.4848 106.407 25.9148 107.577 26.9648C108.547 27.8448 110.297 28.8948 113.107 28.8948C116.927 28.8948 119.597 26.7948 119.597 23.7948C119.597 21.2548 117.837 18.7648 113.087 14.6148L113.107 14.6048Z" fill="#231F20"/>
<path d="M132.727 9.77484C132.787 9.70484 132.817 9.61484 132.797 9.50484C132.697 9.14484 132.347 9.15484 131.197 9.17484C130.787 9.17484 130.257 9.19484 129.587 9.19484C128.027 9.19484 127.306 9.16484 126.786 9.14484C126.556 9.14484 126.367 9.12484 126.157 9.12484C126.617 7.48484 127.077 6.30484 127.137 6.19484C127.247 5.96484 127.287 5.96484 127.277 5.96484C127.447 5.96484 127.547 5.87484 127.597 5.67484C127.647 5.44484 127.557 4.96484 127.377 4.73484C127.277 4.60484 127.167 4.58484 127.087 4.58484C126.247 4.58484 125.326 7.87484 125.006 9.12484L121.587 9.10484C120.867 9.10484 120.736 9.02484 120.536 8.90484C120.286 8.74484 119.827 8.91484 119.597 9.08484C119.347 9.26484 119.336 9.44484 119.356 9.54484C119.496 10.0548 119.657 10.0648 124.167 10.0548H124.777C124.607 10.7748 124.457 11.5248 124.307 12.3248C123.537 16.4548 123.167 21.7848 123.117 23.2548C123.107 24.4148 123.167 25.8548 123.587 26.1948C123.657 26.2548 123.746 26.2848 123.816 26.2848C123.836 26.2848 123.857 26.2848 123.887 26.2848C123.967 26.2748 124.127 26.2548 124.207 26.1248C124.297 25.9948 124.267 25.8548 124.207 25.6148C124.177 25.4648 124.127 25.2448 124.087 24.9348C123.947 23.8048 124.177 20.2848 124.387 18.7548C124.637 16.7648 124.956 14.6648 125.316 12.6848C125.456 11.8048 125.667 10.9048 125.877 10.0648H129.906C131.826 10.0648 132.497 10.0548 132.717 9.79484L132.727 9.77484Z" fill="#231F20"/>
<path d="M182.376 16.5648C182.336 16.3848 182.167 16.2348 181.867 16.2948C180.327 16.6748 178.306 17.0148 176.597 17.1748C175.257 17.2948 174.197 17.3148 173.727 17.2248C173.737 17.1348 173.757 17.0548 173.777 16.9648C174.007 16.7648 174.397 16.5348 174.777 16.3048L175.107 16.1048C175.847 15.6748 176.987 15.0848 177.287 14.9448C177.347 14.9848 177.437 15.0248 177.547 15.0248C177.877 15.0248 178.057 14.6748 178.057 14.4348C178.057 14.2148 177.787 13.7948 177.467 13.7948C177.217 13.7948 175.307 14.7248 174.107 15.5148C174.097 15.5148 174.076 15.5348 174.067 15.5348C174.307 14.3348 174.587 12.9748 174.897 11.5948C175.377 9.35484 176.007 6.97484 176.097 6.76484C176.207 6.52484 176.327 6.29484 176.427 6.09484C176.597 5.76484 176.737 5.49484 176.787 5.30484C176.867 5.06484 176.827 4.60484 176.667 4.37484C176.567 4.23484 176.447 4.21484 176.387 4.21484C176.067 4.21484 175.707 4.46484 175.047 6.65484C174.917 6.67484 174.797 6.77484 174.727 6.94484C172.977 11.3348 169.707 19.5148 166.707 19.8648C166.247 19.8948 165.867 19.7948 165.626 19.5848C165.446 19.4348 165.337 19.2148 165.287 18.9648C166.137 18.6748 167.017 18.2548 167.387 17.4248C167.597 17.0048 167.627 16.5848 167.477 16.2848C167.367 16.0748 167.187 15.9348 166.957 15.8848C166.347 15.7648 165.177 16.2648 164.607 17.5148C164.457 17.8548 164.367 18.1748 164.337 18.4848C164.307 18.4848 164.287 18.5048 164.257 18.5148C163.297 18.9548 161.976 19.4848 161.156 19.6348C160.756 19.7048 160.447 19.6648 160.257 19.5148C160.167 19.4448 160.107 19.3548 160.067 19.2548C160.897 18.9448 161.847 18.3448 162.236 17.4848C162.486 16.9448 162.517 16.3948 162.327 16.0448C162.207 15.8348 162.017 15.7048 161.777 15.6748C161.387 15.6248 160.997 15.7848 160.637 16.0848C160.597 16.0848 160.556 16.0848 160.516 16.0848C159.616 16.0848 156.007 16.8948 153.617 17.7648C153.677 17.1748 153.557 16.7248 153.277 16.5348C152.817 16.1848 152.017 16.4748 151.137 17.3348C150.887 17.5848 150.687 17.7748 150.537 17.9048C150.547 17.8648 150.567 17.8248 150.577 17.7948C150.607 17.7148 150.627 17.6348 150.637 17.6048C150.997 16.5148 151.287 15.5548 151.587 14.5248C152.047 12.9748 152.577 11.2248 153.457 8.67484C153.507 8.54484 153.547 8.41484 153.597 8.27484C153.726 7.89484 153.866 7.46484 154.156 6.88484C154.566 6.11484 154.637 5.26484 154.307 4.93484C154.147 4.79484 153.997 4.80484 153.897 4.83484C153.547 4.93484 153.267 5.45484 152.807 6.87484C152.727 6.92484 152.667 7.00484 152.637 7.10484C150.687 12.9248 147.887 18.7648 146.457 18.7648C146.427 18.7648 146.387 18.7648 146.357 18.7548C146.307 18.6948 146.307 18.3948 146.357 17.8448C146.357 17.1848 145.897 16.8248 145.467 16.8248C145.037 16.8248 144.557 17.0748 143.887 17.4248L143.737 17.5048C143.297 17.7248 142.947 17.8948 142.737 17.9848C142.857 17.6148 143.037 17.0248 143.077 16.6548C143.087 16.5448 143.097 16.3748 142.987 16.2648C142.917 16.1848 142.817 16.1448 142.687 16.1448H142.607C142.537 16.1648 142.447 16.1748 142.357 16.2248C142.277 16.1948 142.147 16.1948 141.997 16.2648C141.137 16.6348 140.387 16.9748 139.727 17.2648C136.917 18.5048 135.627 19.0748 134.727 19.1548C134.557 19.1548 134.307 19.1548 134.147 18.9748C134.777 18.7348 135.837 18.2048 136.197 17.2848C136.337 16.8948 136.327 16.5548 136.177 16.3148C136.057 16.1148 135.857 15.9948 135.607 15.9548C135.027 15.8448 133.897 16.2848 133.327 17.5948C133.187 17.8948 133.117 18.2048 133.117 18.5048C133.077 18.5148 133.027 18.5348 132.977 18.5548C132.017 18.9948 130.696 19.5248 129.876 19.6748C129.476 19.7448 129.167 19.6948 128.977 19.5548C128.887 19.4848 128.827 19.3948 128.787 19.2948C129.617 18.9948 130.567 18.3848 130.957 17.5248C131.207 16.9848 131.237 16.4348 131.047 16.0848C130.927 15.8748 130.737 15.7448 130.497 15.7148C129.567 15.6048 128.607 16.6948 128.107 17.8548C127.787 18.5648 127.677 19.5348 128.137 20.1248C128.377 20.4348 128.876 20.7548 129.876 20.5648C130.766 20.3948 132.587 19.6348 133.277 19.2348C133.307 19.3048 133.347 19.3748 133.397 19.4348C133.717 19.8848 134.236 20.1148 134.906 20.0548C135.856 19.9848 137.107 19.3848 138.987 18.4848C139.867 18.0648 140.847 17.5848 141.997 17.0748C141.917 17.4048 141.827 17.7048 141.757 17.9348C141.677 18.2148 141.647 18.3048 141.647 18.3848C141.647 18.7648 142.257 18.9748 142.467 18.9748C142.627 18.9748 143.016 18.8248 144.486 18.0948L144.587 18.0448C145.107 17.7748 145.247 17.7648 145.247 17.7348C145.267 17.7748 145.266 17.9648 145.266 18.1348C145.226 18.5048 145.116 19.4848 145.986 19.6548C147.036 19.8548 148.377 18.7348 149.637 16.5448C149.957 15.9848 150.267 15.3548 150.567 14.7048C150.297 15.7048 150.047 16.6448 149.807 17.4948C149.617 18.1948 149.606 18.6748 149.766 18.9148C149.836 19.0148 149.937 19.0848 150.047 19.0948C150.397 19.1648 150.877 18.7748 151.717 18.0148C152.287 17.5148 152.567 17.4348 152.607 17.4348C152.667 17.5348 152.666 17.8248 152.516 18.2348H152.497C150.837 18.9948 150.066 19.8848 149.906 20.4248C149.836 20.6648 149.887 20.8148 149.937 20.9048C150.067 21.1048 150.336 21.2048 150.656 21.2048C151.286 21.1948 152.297 20.7348 153.047 19.4748C153.227 19.1548 153.337 18.9048 153.417 18.6948C154.787 18.0848 158.126 17.3448 159.876 17.0048C159.696 17.2748 159.537 17.5648 159.417 17.8548C159.097 18.5648 158.987 19.5348 159.447 20.1248C159.687 20.4348 160.187 20.7548 161.187 20.5648C162.017 20.4048 163.667 19.7248 164.437 19.3148C164.507 19.5548 164.617 19.7848 164.777 19.9848C165.257 20.6048 166.127 20.9448 166.917 20.8148C169.567 20.3748 171.707 16.7448 174.027 10.8548C173.997 10.9648 173.977 11.0748 173.947 11.1948C173.447 13.3248 173.087 15.0548 172.867 16.4648C172.347 16.9248 172.146 17.3148 172.266 17.6748C172.326 17.8048 172.457 17.9048 172.626 17.9948C172.566 18.3948 172.527 18.7848 172.477 19.1648V19.2248C172.217 21.6348 172.286 22.2548 172.486 22.4748C172.547 22.5448 172.637 22.5848 172.727 22.5848C173.067 22.5848 173.087 22.2648 173.117 21.7248C173.137 21.2848 173.177 20.5448 173.367 19.4348L173.587 18.1948C174.347 18.2648 175.427 18.2448 176.697 18.1248C177.777 18.0148 180.477 17.6848 182.077 17.1648C182.317 17.1048 182.456 16.8148 182.406 16.5948L182.376 16.5648ZM151.607 19.6948C151.417 19.8748 151.227 20.0248 151.057 20.1248C151.187 20.0048 151.367 19.8648 151.607 19.6948ZM160.126 18.4448C160.156 18.3548 160.187 18.2548 160.236 18.1648C160.617 17.2348 161.387 16.5648 161.637 16.4848C161.667 16.5948 161.627 16.8748 161.477 17.0948C161.207 17.5548 160.667 18.1248 160.137 18.4448H160.126ZM166.647 17.0448C166.377 17.5048 165.887 17.9248 165.347 18.1748C165.376 18.0748 165.417 17.9748 165.457 17.8648C165.837 16.9748 166.517 16.6648 166.747 16.6648C166.747 16.7348 166.747 16.8748 166.637 17.0448H166.647ZM135.427 16.7248C135.427 16.7248 135.457 16.8248 135.417 16.9548C135.277 17.3548 134.667 17.8948 134.057 18.2048C134.087 18.1148 134.117 18.0248 134.167 17.9148C134.557 16.9548 135.217 16.7248 135.397 16.7248C135.407 16.7248 135.417 16.7248 135.427 16.7248ZM128.947 18.1648C129.327 17.2348 130.097 16.5648 130.347 16.4848C130.377 16.5948 130.337 16.8748 130.187 17.0948C129.917 17.5548 129.377 18.1248 128.847 18.4448C128.877 18.3548 128.907 18.2548 128.957 18.1648H128.947Z" fill="#231F20"/>
</svg>
